<svg xmlns="http://www.w3.org/2000/svg" viewBox="0 0 348 348" fill="none">
  <path d="M5.079 5.776h336.913v337.67H5.08z" stroke-width="2" stroke="#000"/>
  <path d="M282.734 40.554c0-8.376 6.966-15.165 15.56-15.165 4.126 0 8.084 1.597 11.001 4.441 2.918 2.844 4.558 6.702 4.558 10.724 0 8.376-6.966 15.165-15.56 15.165-8.593 0-15.559-6.79-15.559-15.165z" stroke-width="2" stroke="#000"/>
  <path d="M500-200h347v348H500z" color="#000" fill="#ffb3b3"/>
  <path d="M21 18h189v48H21z" color="#000" fill="#000"/>
  <path d="M505.08-194.224h336.91v337.67H505.08z" stroke="#000" stroke-width="2"/>
  <rect width="60.337002" height="62.043999" x="21" y="69" ry="0" color="#000" fill="#fff" stroke="#000" stroke-width="2" stroke-linecap="round"/>
  <path d="M85.332 69h60.337v62.044H85.332zm64.332 0h60.337v62.044h-60.337zm0 66.152h60.337v62.044h-60.337zm-64.332 0h60.337v62.044H85.332zm-64.332 0h60.337v62.044H21zm0 66.152h60.337v62.044H21zm64.332 0h60.337v62.044H85.332zm64.332 0h60.337v62.044h-60.337zM149.664 267.456h60.337V329.5h-60.337zM85.332 267.456h60.337V329.5H85.332zM21 267.456h60.337V329.5H21z" color="#000" fill="#fff" stroke="#000" stroke-width="2" stroke-linecap="round"/>
  <path d="M31.123169 59.855103V29.674927h6.396973v2.400879H34.02356v25.378418h3.496582v2.400879zM49.734009 53.296997v-23.62207h8.137207q2.755371 0 4.205566.338379 2.030274.467285 3.464356 1.691894 1.86914 1.579102 2.787597 4.044434.934571 2.449219.934571 5.607422 0 2.690918-.628418 4.769531t-1.611328 3.448242q-.982911 1.353516-2.15918 2.143067-1.160156.773437-2.819824 1.176269-1.643555.402832-3.786621.402832zm3.125976-2.787598h5.043457q2.336426 0 3.657715-.435058 1.337403-.435059 2.126953-1.22461 1.111817-1.111816 1.724121-2.980957.628418-1.885253.628418-4.560058 0-3.706055-1.224609-5.687988-1.208496-1.998047-2.94873-2.674805-1.256836-.483399-4.044434-.483399h-4.962891zM74.113403 53.296997v-23.62207h3.125977v23.62207zM81.670532 45.707642l2.948731-.257813q.209472 1.772461.966797 2.916504.773437 1.12793 2.384765 1.836914 1.611328.692871 3.625488.692871 1.788575 0 3.158204-.531738t2.030273-1.450195q.676758-.934571.676758-2.030274 0-1.111816-.644531-1.933594-.644532-.83789-2.126954-1.401855-.950683-.370606-4.205566-1.144043-3.254883-.789551-4.560059-1.482422-1.691894-.88623-2.529785-2.191406-.821777-1.321289-.821777-2.948731 0-1.788574 1.015137-3.335449 1.015136-1.562988 2.964843-2.368652 1.949707-.805664 4.334473-.805664 2.626465 0 4.624512.854004 2.01416.83789 3.09375 2.481445 1.07959 1.643555 1.160156 3.722168l-2.99707.225586q-.241699-2.239746-1.643555-3.383789-1.385742-1.144043-4.108887-1.144043-2.835937 0-4.141113 1.047363-1.289062 1.03125-1.289062 2.497559 0 1.272949.918457 2.094726.902343.821778 4.705078 1.691895 3.818847.854004 5.236816 1.498535 2.0625.950684 3.04541 2.416992.982909 1.450195.982909 3.351563 0 1.885254-1.079588 3.561035-1.07959 1.659668-3.109864 2.594238-2.01416.918457-4.543945.918457-3.206543 0-5.381836-.93457-2.15918-.934571-3.399902-2.803711-1.22461-1.885254-1.289063-4.253906zM104.77698 53.296997v-23.62207h8.91064q2.35254 0 3.59326.225586 1.74024.290039 2.91651 1.111816 1.17627.805664 1.88525 2.271973.7251 1.466308.7251 3.222656 0 3.013184-1.91748 5.10791-1.91748 2.078613-6.92871 2.078613h-6.0586v9.603516zm3.12597-12.391113h6.10694q3.02929 0 4.30224-1.12793 1.27295-1.12793 1.27295-3.174316 0-1.482422-.75732-2.529785-.74121-1.063477-1.96582-1.401856-.78955-.209473-2.91651-.209473h-6.04248zM126.69104 53.296997v-23.62207h3.12598v20.834472h11.63379v2.787598zM142.59485 53.296997l9.07178-23.62207h3.36767l9.66797 23.62207h-3.56103l-2.75538-7.154297h-9.87744l-2.59424 7.154297zm6.81592-9.700195h8.0083l-2.46533-6.541992q-1.12793-2.980957-1.67579-4.898438-.45117 2.271973-1.27295 4.511719zM171.43762 53.296997V43.290649l-9.104-13.615722h3.80273l4.65674 7.12207q1.28906 1.998047 2.40088 3.996094 1.06348-1.853028 2.57812-4.17334l4.57618-6.944824h3.6416l-9.42627 13.615722v10.006348zM199.87756 59.855103h-6.39697v-2.400879h3.49658V32.075806h-3.49658v-2.400879h6.39697z" fill="#fff"/>
  <path d="M43.523437 91.150681v-2.787598h15.291504v2.255859q-2.255859 2.400879-4.479492 6.38086-2.207519 3.979978-3.416015 8.185548-.870118 2.96484-1.111817 6.49365H46.82666q.04834-2.7876 1.095703-6.73535 1.047364-3.94775 2.997071-7.605469 1.96582-3.673829 4.173339-6.1875z" fill="#000"/>
  <path d="M112.21344 98.868942q-1.80469-.660644-2.6748-1.885254-.87012-1.224609-.87012-2.932617 0-2.578125 1.85303-4.334472 1.85302-1.756348 4.93066-1.756348 3.09375 0 4.979 1.804687 1.88526 1.788575 1.88526 4.3667 0 1.643554-.87012 2.868164-.854 1.208496-2.61035 1.86914 2.17529.708985 3.30322 2.288088 1.14404 1.5791 1.14404 3.77051 0 3.02929-2.14306 5.09179-2.14307 2.0625-5.63965 2.0625t-5.63965-2.0625q-2.14307-2.07861-2.14307-5.17236 0-2.3042 1.16016-3.85107 1.17627-1.562993 3.33545-2.126958zm-.58008-4.914551q0 1.675782 1.07959 2.739258 1.07959 1.063477 2.80371 1.063477 1.67578 0 2.73926-1.047363 1.07959-1.063477 1.07959-2.594239 0-1.595215-1.11182-2.674804-1.0957-1.095704-2.73925-1.095704-1.65967 0-2.75538 1.063477-1.0957 1.063477-1.0957 2.545898zm-.93457 10.908689q0 1.24073.58008 2.40088.59619 1.16016 1.75635 1.80469 1.16015.62842 2.49756.62842 2.07861 0 3.43212-1.33741 1.35352-1.3374 1.35352-3.3999 0-2.09472-1.40186-3.46435-1.38574-1.36963-3.48046-1.36963-2.04639 0-3.39991 1.35351-1.3374 1.35352-1.3374 3.38379z" fill="#000"/>
  <path d="M172.5011 106.2166l2.7876-.25781q.35449 1.96582 1.35351 2.85205.99903.88623 2.56201.88623 1.33741 0 2.33643-.61231 1.01514-.6123 1.65967-1.62744.64453-1.03125 1.07959-2.77148.43506-1.74024.43506-3.54493 0-.19335-.0161-.58007-.87011 1.38574-2.38476 2.25586-1.49854.854-3.25489.854-2.93261 0-4.96289-2.12695-2.03027-2.126956-2.03027-5.607425 0-3.593262 2.11084-5.784668 2.12695-2.191406 5.31738-2.191406 2.3042 0 4.20557 1.240723 1.91748 1.240722 2.90039 3.544921.99902 2.288086.99902 6.638672 0 4.527833-.98291 7.218753-.98291 2.6748-2.93261 4.07666-1.9336 1.40185-4.54395 1.40185-2.77148 0-4.52783-1.53076-1.75635-1.54687-2.11084-4.33447zm11.87549-10.425294q0-2.497559-1.33741-3.963868-1.32128-1.466308-3.19043-1.466308-1.93359 0-3.36767 1.579101-1.43408 1.579102-1.43408 4.092774 0 2.255859 1.35351 3.673828 1.36963 1.401857 3.36768 1.401857 2.01416 0 3.30322-1.401857 1.30518-1.417969 1.30518-3.915527z" fill="#000"/>
  <path d="M53.247437 177.985v-5.65576H42.99939v-2.65869l10.779785-15.30762h2.368652v15.30762h3.19043v2.65869h-3.19043v5.65576zm0-8.31445v-10.65088l-7.395997 10.65088z" fill="#000"/>
  <path d="M107.66907 171.43449l3.04541-.25781q.33838 2.22363 1.56299 3.35156 1.24072 1.11182 2.98095 1.11182 2.09473 0 3.54492-1.5791 1.4502-1.5791 1.4502-4.18945 0-2.48145-1.40186-3.91553-1.38574-1.43408-3.6416-1.43408-1.40185 0-2.52978.64453-1.12793.62842-1.77246 1.64355l-2.72315-.35449 2.28809-12.1333h11.74658v2.77148h-9.42627l-1.27295 6.34864q2.12695-1.48243 4.46338-1.48243 3.09375 0 5.2207 2.14307 2.12696 2.14307 2.12696 5.51074 0 3.20655-1.86914 5.54297-2.27198 2.86817-6.20362 2.86817-3.22265 0-5.26904-1.80469-2.03027-1.80469-2.32031-4.78565z" fill="#000"/>
  <path d="M187.21185 159.99359l-2.88427.22559q-.38672-1.70801-1.09571-2.48145-1.17627-1.24072-2.90039-1.24072-1.38574 0-2.4331.77344-1.36963.99902-2.15918 2.9165-.78955 1.91748-.82178 5.4624 1.04736-1.59521 2.56201-2.36865 1.51465-.77344 3.17432-.77344 2.90039 0 4.93066 2.14307 2.04639 2.12695 2.04639 5.51074 0 2.22363-.9668 4.14112-.95068 1.90136-2.62646 2.9165-1.67578 1.01514-3.80274 1.01514-3.62549 0-5.91357-2.6587-2.28809-2.6748-2.28809-8.79785 0-6.84814 2.52979-9.95801 2.20752-2.70703 5.9458-2.70703 2.7876 0 4.56006 1.56299 1.78857 1.56299 2.14306 4.31836zm-11.84326 10.1836q0 1.49853.62842 2.86816.64453 1.36963 1.78857 2.09473 1.14405.70898 2.40088.70898 1.83692 0 3.15821-1.48242 1.32128-1.48242 1.32128-4.02832 0-2.44922-1.30517-3.85108-1.30518-1.41797-3.28711-1.41797-1.96582 0-3.33545 1.41797-1.36963 1.40186-1.36963 3.68995z" fill="#000"/>
  <path d="M55.51886 244.185h-2.900391v-18.48194q-1.047363.99903-2.755371 1.99805-1.691894.99902-3.04541 1.49854v-2.80371q2.433105-1.14405 4.253906-2.77149t2.578125-3.1582h1.869141z" fill="#000"/>
  <path d="M123.32324 241.3974v2.7876h-15.61377q-.0322-1.04737.33838-2.01416.59619-1.59522 1.90137-3.14209 1.32129-1.54688 3.80273-3.57715 3.85108-3.1582 5.20459-4.99512 1.35352-1.85303 1.35352-3.49658 0-1.72412-1.24072-2.90039-1.22461-1.19238-3.20655-1.19238-2.09472 0-3.35156 1.25683-1.25684 1.25684-1.27295 3.48047l-2.98096-.30615q.30616-3.33545 2.3042-5.07568 1.99805-1.75635 5.36573-1.75635 3.3999 0 5.38183 1.88525 1.98194 1.88526 1.98194 4.67285 0 1.41797-.58008 2.7876t-1.9336 2.88428q-1.3374 1.51465-4.46338 4.15722-2.61035 2.19141-3.35156 2.98096-.74121.77344-1.22461 1.56299z" fill="#000"/>
  <path d="M172.09814 237.73917l2.9004-.38672q.49951 2.46533 1.69189 3.56103 1.2085 1.07959 2.93262 1.07959 2.04638 0 3.44824-1.41797 1.41797-1.41796 1.41797-3.51269 0-1.99805-1.30518-3.28711-1.30517-1.30518-3.31933-1.30518-.82178 0-2.04639.32227l.32226-2.5459q.29004.0322.46729.0322 1.85303 0 3.33545-.9668 1.48242-.9668 1.48242-2.98096 0-1.59521-1.07959-2.64257-1.07959-1.04737-2.7876-1.04737-1.69189 0-2.81982 1.06348-1.12793 1.06347-1.4502 3.19043l-2.90039-.51563q.53174-2.9165 2.417-4.51172 1.88525-1.61132 4.68896-1.61132 1.93359 0 3.56104.83789 1.62744.82177 2.48144 2.25586.87012 1.43408.87012 3.04541 0 1.53076-.82178 2.78759-.82178 1.25684-2.4331 1.99805 2.09472.4834 3.25488 2.01416 1.16015 1.51465 1.16015 3.80274 0 3.09375-2.25585 5.25293-2.25586 2.14306-5.70411 2.14306-3.10986 0-5.17236-1.85303-2.04639-1.85302-2.33643-4.80175z" fill="#000"/>
  <path d="M107.79809 298.48608q0-4.18945.854-6.73535.87012-2.56201 2.56201-3.94775 1.70801-1.38574 4.28614-1.38574 1.90136 0 3.33545.77343 1.43408.75733 2.36865 2.20752.93457 1.43409 1.46631 3.5127.53173 2.0625.53173 5.57519 0 4.15723-.854 6.71924-.854 2.5459-2.56201 3.94776-1.6919 1.38574-4.28613 1.38574-3.41602 0-5.36573-2.44922-2.33642-2.94873-2.33642-9.60352zm2.98096 0q0 5.8169 1.35351 7.75049 1.36963 1.91748 3.36768 1.91748 1.99804 0 3.35156-1.93359 1.36963-1.93359 1.36963-7.73438 0-5.833-1.36963-7.75048-1.35352-1.91748-3.38379-1.91748-1.99805 0-3.19043 1.69189-1.49853 2.15918-1.49853 7.97607z" fill="#000"/>
  <path d="M42.764996 290.64325l1.894531.47852q-.595703 2.33398-2.148438 3.56445-1.542968 1.2207-3.779297 1.2207-2.314453 0-3.769531-.9375-1.445312-.94726-2.207031-2.73437-.751953-1.78711-.751953-3.83789 0-2.23633.849609-3.89649.859375-1.66992 2.431641-2.5293 1.582031-.86914 3.476562-.86914 2.148438 0 3.613282 1.09375 1.464843 1.09375 2.041015 3.07618l-1.865234.43945q-.498047-1.5625-1.445313-2.27539-.947265-.71289-2.382812-.71289-1.650391 0-2.763672.79101-1.103516.79102-1.552734 2.12891-.449219 1.32812-.449219 2.74414 0 1.82617.527344 3.19336.537109 1.35742 1.660156 2.03125 1.123047.67383 2.43164.67383 1.591797 0 2.695313-.91797 1.103516-.91797 1.494141-2.72461zM46.925152 295.66278v-14.31641h1.894531v12.62696h7.050781v1.68945zM58.165386 295.66278v-14.31641h6.347656q1.914063 0 2.910157.39063.996093.38086 1.591797 1.35742.595703.97656.595703 2.1582 0 1.52344-.986328 2.56836-.986329 1.04493-3.046875 1.32813.751953.36133 1.142578.71289.830078.76172 1.572265 1.9043l2.490235 3.89648h-2.382813l-1.894531-2.97851q-.830078-1.28907-1.367188-1.97266-.537109-.68359-.966796-.95703-.419922-.27344-.859375-.38086-.322266-.0684-1.054688-.0684h-2.197266v6.35742zm1.894531-7.99805h4.072266q1.298828 0 2.03125-.26367.732422-.27344 1.113281-.85937.38086-.59571.38086-1.28907 0-1.01562-.742188-1.66992-.732422-.65429-2.324219-.65429h-4.53125zM30.870464 315.60945v-14.31641h1.94336l7.519531 11.24024v-11.24024h1.816406v14.31641h-1.943359l-7.519531-11.25v11.25zM45.382183 315.60945v-14.31641h10.351563v1.68945h-8.457032v4.38477h7.919922v1.67969h-7.919922v4.87304h8.789063v1.68946zM65.401714 309.99421v-1.67968l6.064453-.01v5.3125q-1.396484 1.11328-2.880859 1.67969-1.484375.55664-3.046875.55664-2.109375 0-3.837891-.89844-1.71875-.9082-2.597656-2.61719-.878906-1.70898-.878906-3.81836 0-2.08984.869141-3.89648.878906-1.81641 2.519531-2.69531 1.640625-.87891 3.779297-.87891 1.552734 0 2.802734.50781 1.259766.49805 1.972656 1.39649.712891.89843 1.083985 2.34375l-1.708985.46875q-.322265-1.09375-.800781-1.71875-.478516-.625-1.367187-.9961-.888672-.38086-1.972657-.38086-1.298828 0-2.246093.40039-.947266.39063-1.533204 1.03516-.576171.64453-.898437 1.41602-.546875 1.32812-.546875 2.88086 0 1.91406.654297 3.20312.664062 1.28906 1.923828 1.91406t2.675781.625q1.230469 0 2.402344-.46875 1.171875-.47851 1.777344-1.01562v-2.66602z" fill="#000"/>
  <path d="M155.30793 300.1668l1.1795-.10312q.0838.70898.38672 1.1666.30937.45117.9539.73477.64453.27714 1.4502.27714.71543 0 1.26328-.21269.54785-.2127.81211-.58008.2707-.37383.2707-.81211 0-.44473-.25781-.77344-.25781-.33515-.85078-.56074-.38028-.14824-1.68223-.45762-1.30195-.31582-1.82402-.59297-.67676-.35449-1.01192-.87656-.32871-.52851-.32871-1.17949 0-.71543.40606-1.33418.40605-.6252 1.18593-.94746.77989-.32227 1.73379-.32227 1.05059 0 1.84981.34161.80566.33515 1.2375.99257.43183.65743.46406 1.48887l-1.19883.0902q-.0967-.8959-.65742-1.35352-.5543-.45762-1.64355-.45762-1.13438 0-1.65645.41895-.51562.4125-.51562.99902 0 .50918.36738.83789.36094.32871 1.88203.67676 1.52754.3416 2.09473.59941.825.38028 1.21816.9668.39316.58008.39316 1.34063 0 .7541-.43183 1.42441-.43184.66387-1.24395 1.0377-.80566.36738-1.81757.36738-1.28262 0-2.15274-.37383-.86367-.37383-1.35996-1.12148-.48984-.75411-.51563-1.70157zM170.7509 293.75372h1.2504v5.45918q0 1.42441-.32227 2.2623-.32227.83789-1.1666 1.36641-.83789.52207-2.2043.52207-1.32773 0-2.17207-.45762-.84434-.45762-1.20527-1.32129-.36094-.87012-.36094-2.37187v-5.45918h1.25039v5.45273q0 1.23106.22559 1.81758.23203.58008.78632.8959.56075.31582 1.36641.31582 1.3793 0 1.96582-.6252.58652-.62519.58652-2.4041zM174.03801 303.20255v-9.44883h3.54493q1.08281 0 1.73378.29004.65743.28359 1.02481.883.37383.59297.37383 1.24395 0 .60586-.32871 1.14082t-.99258.86367q.85723.25137 1.31484.85723.46406.60586.46406 1.43086 0 .66386-.28359 1.2375-.27715.56718-.68965.87656-.4125.30937-1.03769.47051-.61875.15469-1.5211.15469zm1.25039-5.47852h2.04317q.83144 0 1.19238-.10957.47695-.1418.71543-.47051.24492-.32871.24492-.825 0-.47051-.22558-.825-.22559-.36094-.64453-.48984-.41895-.13535-1.43731-.13535h-1.88848zm0 4.36348h2.35254q.60586 0 .85078-.0451.43184-.0773.72188-.25781.29004-.18047.47695-.52207.18692-.34805.18692-.79922 0-.52852-.27071-.91524-.2707-.39316-.7541-.54785-.47695-.16113-1.37929-.16113h-2.18497zM182.86809 303.20255v-9.44883h1.88203l2.23653 6.69023q.30937.93457.45117 1.39863.16113-.51562.50273-1.51464l2.26231-6.57422h1.68223v9.44883h-1.20528v-7.9084l-2.7457 7.9084h-1.12793l-2.73281-8.04376v8.04376zM194.12805 303.20255v-9.44883h1.25039v9.44883zM199.9804 303.20255v-8.33379h-3.11309v-1.11504h7.48946v1.11504h-3.12598v8.33379z" fill="#000"/>
  <path d="M226.64135922 314.27382064l-2.78603827-1.014035.88177239-2.42264974 2.78603827 1.014035zm16.94505417 6.16749534l-14.29359868-5.20244446.8817724-2.42264974 14.29359867 5.20244446zM235.41093362 312.207146q-.73779492-.35994826-1.30410778-1.1910396-.84886673-1.2692124-1.54319752-3.7167948-.70779658-2.45248353-.97929767-2.96284068-.37057152-.69883801-.94931881-.9094848-.64603868-.23513885-1.2347263.0840687-.58869104.31921694-.92180156 1.23443057-.32331848.88831023-.16195496 1.45002537.15280143.54337041.95168584 1.15422395l-.95504745 1.95395228q-1.3519054-.93408085-1.70397195-2.14440626-.36062179-1.22868892.29580721-3.03221278.73970749-2.03232961 1.87670755-2.6854507 1.1418978-.6665775 2.28592658-.25018508 1.13056298.41149128 1.85097205 1.5729928.53326641.8799876 1.29727783 3.59679865.41441248 1.41593899.7274821 2.06335932l1.89090966-5.1952316 1.62856248.59274827zM244.98586137 280.4980518l-4.74196906 13.0284529-2.26113537-.82298596 4.74196906-13.02845291zm5.98931885 2.17993378l-4.74196906 13.02845292-2.26113536-.82298597 4.74196905-13.02845292zM243.6668638 267.58039823l-2.81296046-1.02383388.88176897-2.42264034 2.81296047 1.02383388zm21.34639388 11.24466284l-1.89269484-1.20711788q.45295923-.65821398.60481959-1.0754469.26942979-.74025226-.09629429-1.28490376-.35225828-.53975036-2.3172965-1.25496578l-15.02039454-5.46697652.88176898-2.42264034 15.07422952 5.48657085q2.6379897.96014973 3.42451305 2.02377075 1.027495 1.36471647.28778752 3.39704608-.357606.98251441-.9464385 1.8046635zM252.41931147 265.47701192q-.73779492-.35994826-1.30410778-1.19103961-.84886673-1.2692124-1.54319751-3.71679479-.70779659-2.45248354-.97929768-2.96284069-.37057152-.69883801-.94931881-.9094848-.64603868-.23513885-1.23472972.0840781-.58868762.31920755-.92180155 1.23443057-.32331507.88830083-.16195497 1.45002537.15280485.54336102.95168926 1.15421455l-.95504745 1.95395228q-1.35190882-.93407145-1.70397195-2.14440625-.36062179-1.22868893.29580721-3.03221279.73970749-2.0323296 1.87670755-2.6854507 1.14189438-.6665681 2.28592316-.25017568 1.13056298.41149128 1.85097547 1.5729834.53326641.8799876 1.29727441 3.59680805.4144159 1.41592959.72748551 2.06334993l1.89090967-5.19523161 1.62856248.59274827zM261.9942358 233.7679271l-4.74196564 13.02844352-2.26113537-.82298597 4.74196564-13.02844351zm5.98931885 2.1799338l-4.74196564 13.0284435-2.26113536-.82298596 4.74196563-13.02844352zM277.60316909 226.9810478l-19.73109244-7.18153033.8817724-2.42264974 11.25184184 4.09533551-3.72749166-7.84984054 1.1414033-3.1359798 3.31401683 7.39451429 11.18042976-2.74389493-1.08751803 2.98793123-9.02776056 2.06414736 1.01988083 2.30695627 5.66629012 2.06236095zM272.21016342 211.10209309q-.73779493-.35994826-1.30410779-1.19103961-.84886672-1.2692124-1.54319751-3.71679479-.7077959-2.45248542-.97929768-2.96284069-.3705722-.69883613-.9493195-.90948292-.64603867-.23513885-1.23472697.08407058t-.92180019 1.23442681q-.32331848.88831023-.16195496 1.45002537.15280142.54337041.95168584 1.15422395l-.95504745 1.95395228q-1.3519054-.93408085-1.70397195-2.14440625-.3606218-1.22868893.2958072-3.03221279.7397092-2.0323343 1.87670722-2.68544977 1.14189676-.66657467 2.28592554-.25018225 1.130563.41149128 1.8509748 1.57298528.53326606.87998855 1.29727646 3.59680241.41441248 1.41593899.72748209 2.06335933l1.89090898-5.19522973 1.62856249.59274827zM281.7850915 179.39299794l-4.741967 13.02844727-2.26113537-.82298597 4.741967-13.02844727zm5.98931886 2.17993379l-4.741967 13.02844727-2.26113537-.82298597 4.741967-13.02844727zM280.44896892 166.438628l-2.78603827-1.014035.88177068-2.42264504 2.78603827 1.014035zm16.94505416 6.16749533l-14.29359867-5.20244445.88177068-2.42264504 14.29359868 5.20244446zM282.69991266 160.33797788l-2.81296046-1.02383388.88177068-2.42264504 2.81296046 1.02383388zm21.34639559 11.24465814l-1.89269518-1.20711693q.45295854-.6582121.6048189-1.07544503.26943013-.7402532-.09629429-1.28490376-.35225896-.53974848-2.31729718-1.2549639l-15.02039454-5.46697652.88177068-2.42264504 15.07422953 5.48657086q2.6379897.96014972 3.42451373 2.02376887 1.027495 1.36471646.28778718 3.39704701-.35760668.9825163-.94643883 1.80466444zM301.8616612 160.33138848l-19.73109243-7.18153034.88177068-2.42264504 11.25184185 4.09533552-3.72749064-7.84984337 1.14140297-3.13597886 3.31401888 7.39450865 11.1804277-2.74388929-1.08751734 2.98792935-9.02776159 2.06415018 1.01988049 2.30695721 5.66629012 2.06236095zM302.6928523 121.94939727l-4.74196701 13.02844728-2.26113537-.82298597 4.741967-13.02844728zm5.98931885 2.17993379l-4.741967 13.02844727-2.26113537-.82298597 4.741967-13.02844727zM314.3355926 99.29989166l-4.74196694 13.0284471-2.26113537-.82298597 4.74196695-13.0284471zM327.23216513 90.62650183l-.88177068 2.42264504-15.43762746-5.61883688q.5160485 1.17856516.83124945 2.90895447.3200997 1.7169301.32583963 2.99935815l-2.34189255-.85237918q-.21588474-2.38013674-1.0217067-4.39579303-.8058129-2.01565193-1.85419376-3.11361136l.56825245-1.56126076z" fill="#000"/>
</svg>
